<?xml version="1.0" encoding="utf-8"?>
<!-- Generator: Adobe Illustrator 16.0.0, SVG Export Plug-In . SVG Version: 6.00 Build 0)  -->
<!DOCTYPE svg PUBLIC "-//W3C//DTD SVG 1.1//EN" "http://www.w3.org/Graphics/SVG/1.1/DTD/svg11.dtd">
<svg version="1.1" id="Calque_1" xmlns="http://www.w3.org/2000/svg" xmlns:xlink="http://www.w3.org/1999/xlink" x="0px" y="0px"
	 width="30px" height="30px" viewBox="0 0 30 30" enable-background="new 0 0 30 30" xml:space="preserve">
	<g>
		<path id="glas" d="M17.668,15.375c0.176-0.285,4.311-7.011,3.807-10.022c-0.26-1.557-1.828-3.411-7.819-3.411
			c-5.992,0-7.561,1.854-7.82,3.411c-0.503,3.012,3.63,9.738,3.776,9.961c0.029,0.078,0.7,1.923-0.619,3.65
			c-1.604,2.098-0.676,3.459-0.637,3.516l0.063,0.088l0.101,0.041c0.048,0.018,1.217,0.467,4.385,0.467
			c0.241,0,0.492-0.002,0.742-0.008c0.264,0.006,0.516,0.008,0.756,0.008l0,0c3.168,0,4.336-0.449,4.385-0.467l0.101-0.041
			l0.063-0.088c0.038-0.057,0.968-1.418-0.636-3.516C16.999,17.238,17.669,15.393,17.668,15.375z"/>
		<path id="mousse" fill="#FFFFFF" d="M6.689,7.177c-0.213-0.372-0.21-1.238-0.131-1.708c0.388-2.322,4.074-2.81,7.097-2.81
			c3.023,0,6.711,0.487,7.098,2.81c0.078,0.47,0.39,1.294-0.129,1.71c-0.237,0.19-1.219,0-1.219,0s-1.098,0.015-1.575,0.199
			c-0.659,0.255-0.766,0.536-0.415,1.436c0.67,1.735-0.014,3.681-0.58,3.693c-0.915,0.021-0.884-1.789-0.681-2.426
			c0.202-0.639,0.407-1.583-0.001-2.031c-0.407-0.45-0.703-0.571-1.33-0.627c-0.997-0.089-2.533,1.269-4.155,1.143
			C8.107,8.366,7.213,8.09,6.689,7.177z"/>
		<path fill="#FFFFFF" d="M18.4,21.979c-0.354,0.102-1.541,0.381-3.997,0.381c-0.235,0-0.482-0.004-0.756-0.01
			c-2.965,0.066-4.353-0.26-4.737-0.371c-0.131-0.287-0.392-1.199,0.667-2.586c0.027-0.033,0.048-0.068,0.073-0.104
			c1.088,0.309,4.506,1.084,8.01,0c0.024,0.035,0.044,0.07,0.071,0.104C18.793,20.783,18.53,21.695,18.4,21.979z"/>
		<polyline fill="none" stroke="#ffffff" stroke-width="1.5" stroke-linecap="round" stroke-linejoin="round" stroke-miterlimit="10" points="
	16.669,12.229 13.671,17.694 11.47,14.506 "/>
	</g>
</svg>
